<svg xmlns="http://www.w3.org/2000/svg" viewBox="0 0 64 64" width="38" height="38">
  <defs>
    <linearGradient id="amuletGrad" x1="0%" y1="0%" x2="100%" y2="100%">
      <stop offset="0%" style="stop-color:#8b7355"/>
      <stop offset="50%" style="stop-color:#a08060"/>
      <stop offset="100%" style="stop-color:#8b7355"/>
    </linearGradient>
    <radialGradient id="gemGrad" cx="50%" cy="50%" r="50%">
      <stop offset="0%" style="stop-color:#ff6b6b"/>
      <stop offset="50%" style="stop-color:#cc4444"/>
      <stop offset="100%" style="stop-color:#8b2222"/>
    </radialGradient>
  </defs>
  
  <!-- 护身符挂绳 -->
  <path d="M32 8 L28 16 L32 18 L36 16 Z" fill="#4a3a2a" stroke="#333" stroke-width="1"/>
  
  <!-- 护身符主体 -->
  <path d="M20 18 Q15 25 15 35 L15 45 Q15 55 25 55 L39 55 Q49 55 49 45 L49 35 Q49 25 44 18 Z" fill="url(#amuletGrad)" stroke="#6b5344" stroke-width="1.5"/>
  
  <!-- 宝石 -->
  <ellipse cx="32" cy="38" rx="10" ry="12" fill="url(#gemGrad)" stroke="#ffd700" stroke-width="1"/>
  
  <!-- 宝石高光 -->
  <ellipse cx="29" cy="34" rx="3" ry="4" fill="#fff" opacity="0.4"/>
  <ellipse cx="27" cy="32" rx="1.5" ry="2" fill="#fff" opacity="0.6"/>
  
  <!-- 金属边框装饰 -->
  <path d="M22 22 Q20 28 22 34" fill="none" stroke="#666" stroke-width="1"/>
  <path d="M42 22 Q44 28 42 34" fill="none" stroke="#666" stroke-width="1"/>
  
  <!-- 底部装饰 -->
  <path d="M26 55 L32 60 L38 55" fill="none" stroke="#666" stroke-width="1"/>
  
  <!-- 宝石装饰点 -->
  <circle cx="26" cy="30" r="2" fill="#ffd700" stroke="#cc9900" stroke-width="0.5"/>
  <circle cx="38" cy="30" r="2" fill="#ffd700" stroke="#cc9900" stroke-width="0.5"/>
</svg>