<svg xmlns="http://www.w3.org/2000/svg" viewBox="0 0 64 64" width="38" height="38">
  <defs>
    <linearGradient id="gloveGrad" x1="0%" y1="0%" x2="100%" y2="100%">
      <stop offset="0%" style="stop-color:#4a4a4a"/>
      <stop offset="50%" style="stop-color:#2d2d2d"/>
      <stop offset="100%" style="stop-color:#1a1a1a"/>
    </linearGradient>
  </defs>
  
  <!-- 手套主体 -->
  <path d="M20 55 Q20 45 25 42 L40 40 Q50 38 52 28 Q54 18 48 14 Q42 10 32 12 Q22 14 20 24 Q18 34 20 44 Z" fill="url(#gloveGrad)" stroke="#333" stroke-width="1.5"/>
  
  <!-- 手腕 -->
  <ellipse cx="32" cy="52" rx="10" ry="5" fill="#3a3a3a" stroke="#333" stroke-width="1.5"/>
  
  <!-- 拇指 -->
  <path d="M25 42 Q18 38 16 28 Q14 22 20 20 Q26 18 30 24 Q32 30 30 36 Z" fill="url(#gloveGrad)" stroke="#333" stroke-width="1"/>
  
  <!-- 食指 -->
  <path d="M38 40 Q36 30 38 22 Q40 16 44 16 Q48 16 50 20 Q52 24 50 30 Z" fill="url(#gloveGrad)" stroke="#333" stroke-width="1"/>
  
  <!-- 中指 -->
  <path d="M42 40 Q40 28 42 20 Q44 14 48 14 Q52 14 54 18 Q56 22 54 28 Z" fill="url(#gloveGrad)" stroke="#333" stroke-width="1"/>
  
  <!-- 无名指 -->
  <path d="M46 40 Q44 32 44 24 Q44 18 46 16 Q48 14 50 16 Q52 18 50 24 Z" fill="url(#gloveGrad)" stroke="#333" stroke-width="1"/>
  
  <!-- 小指 -->
  <path d="M48 42 Q48 36 46 30 Q44 26 44 28 Q42 30 44 34 Z" fill="url(#gloveGrad)" stroke="#333" stroke-width="1"/>
  
  <!-- 指关节护甲 -->
  <circle cx="46" cy="24" r="3" fill="#555" stroke="#333" stroke-width="0.5"/>
  <circle cx="50" cy="22" r="3" fill="#555" stroke="#333" stroke-width="0.5"/>
  <circle cx="52" cy="26" r="3" fill="#555" stroke="#333" stroke-width="0.5"/>
  
  <!-- 手套细节 -->
  <path d="M30 30 L30 45" fill="none" stroke="#444" stroke-width="1"/>
  <path d="M35 30 L35 42" fill="none" stroke="#444" stroke-width="1"/>
  
  <!-- 金属装饰 -->
  <rect x="28" y="45" width="8" height="3" fill="#666" stroke="#444" stroke-width="0.5"/>
</svg>