<svg xmlns="http://www.w3.org/2000/svg" viewBox="0 0 64 64" width="38" height="38">
  <defs>
    <linearGradient id="swordGrad" x1="0%" y1="0%" x2="100%" y2="0%">
      <stop offset="0%" style="stop-color:#8b7355"/>
      <stop offset="50%" style="stop-color:#a08060"/>
      <stop offset="100%" style="stop-color:#8b7355"/>
    </linearGradient>
    <linearGradient id="bladeGrad" x1="0%" y1="0%" x2="100%" y2="100%">
      <stop offset="0%" style="stop-color:#c0c0c0"/>
      <stop offset="30%" style="stop-color:#e0e0e0"/>
      <stop offset="70%" style="stop-color:#e0e0e0"/>
      <stop offset="100%" style="stop-color:#808080"/>
    </linearGradient>
  </defs>
  
  <!-- 剑刃 -->
  <path d="M32 8 L28 45 Q26 48 30 48 L34 48 Q38 48 36 45 Z" fill="url(#bladeGrad)" stroke="#666" stroke-width="0.5"/>
  
  <!-- 剑刃中线 -->
  <path d="M32 10 L32 46" fill="none" stroke="#a0a0a0" stroke-width="1"/>
  
  <!-- 剑格 -->
  <rect x="18" y="45" width="28" height="6" fill="url(#swordGrad)" stroke="#6b5344" stroke-width="1"/>
  
  <!-- 剑柄 -->
  <rect x="28" y="51" width="8" height="10" fill="#4a3a2a" stroke="#333" stroke-width="1"/>
  
  <!-- 剑柄缠绕 -->
  <line x1="28" y1="53" x2="36" y2="53" stroke="#2a1a0a" stroke-width="1"/>
  <line x1="28" y1="55" x2="36" y2="55" stroke="#2a1a0a" stroke-width="1"/>
  <line x1="28" y1="57" x2="36" y2="57" stroke="#2a1a0a" stroke-width="1"/>
  
  <!-- 剑首 -->
  <circle cx="32" cy="62" r="4" fill="#6b5344" stroke="#4a3a2a" stroke-width="1"/>
  
  <!-- 血槽 -->
  <path d="M30 15 L30 40" fill="none" stroke="#a05050" stroke-width="1" opacity="0.6"/>
  <path d="M34 15 L34 40" fill="none" stroke="#a05050" stroke-width="1" opacity="0.6"/>
  
  <!-- 剑格装饰 -->
  <circle cx="22" cy="48" r="2" fill="#ffd700" stroke="#cc9900" stroke-width="0.5"/>
  <circle cx="42" cy="48" r="2" fill="#ffd700" stroke="#cc9900" stroke-width="0.5"/>
</svg>