<svg xmlns="http://www.w3.org/2000/svg" viewBox="0 0 64 64" width="38" height="38">
  <defs>
    <linearGradient id="maceGrad" x1="0%" y1="0%" x2="100%" y2="100%">
      <stop offset="0%" style="stop-color:#8b7355"/>
      <stop offset="50%" style="stop-color:#a08060"/>
      <stop offset="100%" style="stop-color:#8b7355"/>
    </linearGradient>
    <radialGradient id="maceHead" cx="50%" cy="50%" r="50%">
      <stop offset="0%" style="stop-color:#c0c0c0"/>
      <stop offset="100%" style="stop-color:#606060"/>
    </radialGradient>
  </defs>
  
  <!-- 锤头部 -->
  <circle cx="32" cy="25" r="14" fill="url(#maceHead)" stroke="#555" stroke-width="1.5"/>
  
  <!-- 锤头尖刺 -->
  <circle cx="32" cy="11" r="3" fill="#666" stroke="#444" stroke-width="1"/>
  <circle cx="18" cy="25" r="3" fill="#666" stroke="#444" stroke-width="1"/>
  <circle cx="46" cy="25" r="3" fill="#666" stroke="#444" stroke-width="1"/>
  <circle cx="32" cy="39" r="3" fill="#666" stroke="#444" stroke-width="1"/>
  <circle cx="20" cy="17" r="2.5" fill="#666" stroke="#444" stroke-width="1"/>
  <circle cx="44" cy="17" r="2.5" fill="#666" stroke="#444" stroke-width="1"/>
  <circle cx="20" cy="33" r="2.5" fill="#666" stroke="#444" stroke-width="1"/>
  <circle cx="44" cy="33" r="2.5" fill="#666" stroke="#444" stroke-width="1"/>
  
  <!-- 锤头细节 -->
  <circle cx="32" cy="25" r="6" fill="#808080" stroke="#555" stroke-width="1"/>
  
  <!-- 锤柄 -->
  <rect x="30" y="39" width="4" height="23" fill="#4a3a2a" stroke="#333" stroke-width="1"/>
  
  <!-- 锤柄缠绕 -->
  <line x1="30" y1="44" x2="34" y2="44" stroke="#2a1a0a" stroke-width="1"/>
  <line x1="30" y1="47" x2="34" y2="47" stroke="#2a1a0a" stroke-width="1"/>
  <line x1="30" y1="50" x2="34" y2="50" stroke="#2a1a0a" stroke-width="1"/>
  <line x1="30" y1="53" x2="34" y2="53" stroke="#2a1a0a" stroke-width="1"/>
  
  <!-- 锤柄末端 -->
  <circle cx="32" cy="62" r="3" fill="#6b5344" stroke="#4a3a2a" stroke-width="0.5"/>
  
  <!-- 装饰宝石 -->
  <circle cx="32" cy="25" r="3" fill="#ffd700" stroke="#cc9900" stroke-width="0.5"/>
</svg>