<svg xmlns="http://www.w3.org/2000/svg" viewBox="0 0 64 64" width="38" height="38">
  <defs>
    <linearGradient id="helmGrad" x1="0%" y1="0%" x2="100%" y2="100%">
      <stop offset="0%" style="stop-color:#5a5a5a"/>
      <stop offset="50%" style="stop-color:#3a3a3a"/>
      <stop offset="100%" style="stop-color:#1a1a1a"/>
    </linearGradient>
    <linearGradient id="helmHigh" x1="0%" y1="0%" x2="0%" y2="100%">
      <stop offset="0%" style="stop-color:#777;stop-opacity:0.4"/>
      <stop offset="100%" style="stop-color:#444;stop-opacity:0"/>
    </linearGradient>
  </defs>
  
  <!-- 头盔主体 -->
  <ellipse cx="32" cy="40" rx="18" ry="12" fill="url(#helmGrad)" stroke="#333" stroke-width="1.5"/>
  
  <!-- 头盔顶部 -->
  <path d="M14 30 Q14 18 22 16 Q32 14 42 16 Q50 18 50 30" fill="url(#helmGrad)" stroke="#333" stroke-width="1.5"/>
  
  <!-- 面罩开口 -->
  <ellipse cx="32" cy="42" rx="10" ry="6" fill="#0a0a0a" stroke="#222" stroke-width="1"/>
  
  <!-- 面罩栏杆 -->
  <line x1="22" y1="38" x2="22" y2="46" stroke="#444" stroke-width="2"/>
  <line x1="27" y1="38" x2="27" y2="46" stroke="#444" stroke-width="2"/>
  <line x1="32" y1="38" x2="32" y2="46" stroke="#444" stroke-width="2"/>
  <line x1="37" y1="38" x2="37" y2="46" stroke="#444" stroke-width="2"/>
  <line x1="42" y1="38" x2="42" y2="46" stroke="#444" stroke-width="2"/>
  
  <!-- 装饰尖刺 -->
  <path d="M16 28 L12 20 L20 26 Z" fill="#555" stroke="#333" stroke-width="1"/>
  <path d="M48 28 L52 20 L44 26 Z" fill="#555" stroke="#333" stroke-width="1"/>
  
  <!-- 高光 -->
  <ellipse cx="26" cy="24" rx="4" ry="3" fill="url(#helmHigh)"/>
  <ellipse cx="38" cy="24" rx="4" ry="3" fill="url(#helmHigh)"/>
  
  <!-- 金属边框 -->
  <path d="M14 30 L14 40 L50 40 L50 30" fill="none" stroke="#666" stroke-width="1" opacity="0.5"/>
</svg>