<svg xmlns="http://www.w3.org/2000/svg" width="48" height="48" viewBox="0 0 48 48">
  <defs>
    <linearGradient id="helmGrad" x1="0%" y1="0%" x2="100%" y2="100%">
      <stop offset="0%" style="stop-color:#8B7355"/>
      <stop offset="50%" style="stop-color:#5C4033"/>
      <stop offset="100%" style="stop-color:#3D2817"/>
    </linearGradient>
  </defs>
  <path d="M24 4C12.954 4 4 12.954 4 24c0 8 5.373 14.627 12 17.31V32H8v-4h4v-6H8v-4h4V16c0-4.418 3.582-8 8-8h8c4.418 0 8 3.582 8 8v4h4v4h-4v6h4v4h-8v9.31c6.627-2.683 12-9.31 12-17.31 0-11.046-8.954-20-20-20z" fill="url(#helmGrad)"/>
  <path d="M24 8c-2.21 0-4 1.79-4 4v2h8v-2c0-2.21-1.79-4-4-4z" fill="#C9922A" opacity="0.6"/>
</svg>